<svg xmlns="http://www.w3.org/2000/svg" width="1800" height="500" viewBox="0 0 1800 500">
    <line x1="80" y1="55" x2="80" y2="390" stroke="#142236" stroke-opacity=".15"/><line x1="130" y1="55" x2="130" y2="390" stroke="#142236" stroke-opacity=".15"/><line x1="180" y1="55" x2="180" y2="390" stroke="#142236" stroke-opacity=".15"/><line x1="230" y1="55" x2="230" y2="390" stroke="#142236" stroke-opacity=".15"/><line x1="280" y1="55" x2="280" y2="390" stroke="#142236" stroke-opacity=".15"/><line x1="330" y1="55" x2="330" y2="390" stroke="#142236" stroke-opacity=".15"/><line x1="380" y1="55" x2="380" y2="390" stroke="#142236" stroke-opacity=".15"/><line x1="430" y1="55" x2="430" y2="390" stroke="#142236" stroke-opacity=".15"/><line x1="480" y1="55" x2="480" y2="390" stroke="#142236" stroke-opacity=".15"/><line x1="530" y1="55" x2="530" y2="390" stroke="#142236" stroke-opacity=".15"/><line x1="580" y1="55" x2="580" y2="390" stroke="#142236" stroke-opacity=".15"/><line x1="630" y1="55" x2="630" y2="390" stroke="#142236" stroke-opacity=".15"/><line x1="680" y1="55" x2="680" y2="390" stroke="#142236" stroke-opacity=".15"/><line x1="730" y1="55" x2="730" y2="390" stroke="#142236" stroke-opacity=".15"/><line x1="780" y1="55" x2="780" y2="390" stroke="#142236" stroke-opacity=".15"/><line x1="830" y1="55" x2="830" y2="390" stroke="#142236" stroke-opacity=".15"/><line x1="880" y1="55" x2="880" y2="390" stroke="#142236" stroke-opacity=".15"/><line x1="930" y1="55" x2="930" y2="390" stroke="#142236" stroke-opacity=".15"/><line x1="980" y1="55" x2="980" y2="390" stroke="#142236" stroke-opacity=".15"/><line x1="1030" y1="55" x2="1030" y2="390" stroke="#142236" stroke-opacity=".15"/><line x1="1080" y1="55" x2="1080" y2="390" stroke="#142236" stroke-opacity=".15"/><line x1="1130" y1="55" x2="1130" y2="390" stroke="#142236" stroke-opacity=".15"/><line x1="1180" y1="55" x2="1180" y2="390" stroke="#142236" stroke-opacity=".15"/><line x1="1230" y1="55" x2="1230" y2="390" stroke="#142236" stroke-opacity=".15"/><line x1="1280" y1="55" x2="1280" y2="390" stroke="#142236" stroke-opacity=".15"/><line x1="1330" y1="55" x2="1330" y2="390" stroke="#142236" stroke-opacity=".15"/><line x1="1380" y1="55" x2="1380" y2="390" stroke="#142236" stroke-opacity=".15"/><line x1="1430" y1="55" x2="1430" y2="390" stroke="#142236" stroke-opacity=".15"/><line x1="1480" y1="55" x2="1480" y2="390" stroke="#142236" stroke-opacity=".15"/><line x1="1530" y1="55" x2="1530" y2="390" stroke="#142236" stroke-opacity=".15"/><line x1="1580" y1="55" x2="1580" y2="390" stroke="#142236" stroke-opacity=".15"/><line x1="1630" y1="55" x2="1630" y2="390" stroke="#142236" stroke-opacity=".15"/><line x1="1680" y1="55" x2="1680" y2="390" stroke="#142236" stroke-opacity=".15"/><line x1="50" y1="55" x2="1700" y2="55" stroke="#142236" stroke-opacity=".15"/><line x1="50" y1="105" x2="1700" y2="105" stroke="#142236" stroke-opacity=".15"/><line x1="50" y1="155" x2="1700" y2="155" stroke="#142236" stroke-opacity=".15"/><line x1="50" y1="205" x2="1700" y2="205" stroke="#142236" stroke-opacity=".15"/><line x1="50" y1="255" x2="1700" y2="255" stroke="#142236" stroke-opacity=".15"/><line x1="50" y1="305" x2="1700" y2="305" stroke="#142236" stroke-opacity=".15"/><line x1="50" y1="355" x2="1700" y2="355" stroke="#142236" stroke-opacity=".15"/><line x1="80" y1="265" x2="1660" y2="265" stroke="#F05A28" stroke-width="2"/><line x1="230" y1="285" x2="1610" y2="285" stroke="#142236" stroke-width="3"/><line x1="1610" y1="257" x2="1610" y2="313" stroke="#142236" stroke-width="3"/><circle cx="1610" cy="285" r="8" fill="none" stroke="#142236" stroke-width="3"/><text x="1320" y="350" font-family="monospace" font-size="48" fill="#142236">BP.001</text><text x="80" y="35" font-family="monospace" font-size="28" fill="#142236">CONSTRUCTION VIEW 01</text><text x="80" y="190" font-family="Arial, Helvetica, sans-serif" font-size="150" font-weight="500" letter-spacing="28" fill="#142236">BREWPRINT</text></svg>